<svg xmlns="http://www.w3.org/2000/svg" width="18" height="18" viewBox="0 0 18 18">
    <g fill="none" fill-rule="evenodd">
        <g transform="translate(-202 -377)">
            <path fill="#FFF" d="M0 0H1440V900H0z"/>
            <rect width="213" height="154" x="31.5" y="248.5" stroke="#C4C9CE" rx="8"/>
            <path fill="#AFB4B9" d="M219.85 393.394l-4.657-4.692c-.175-.175-.192-.446-.057-.654 1.91-2.93 1.464-6.957-1.353-9.363-2.711-2.314-6.837-2.235-9.464.176-3.014 2.768-3.09 7.478-.227 10.343 2.442 2.444 6.221 2.741 8.997.905.208-.138.481-.12.657.057l4.647 4.682c.201.202.527.203.73.001l.726-.728c.2-.2.201-.525.001-.727zm-14.387-5.857c-1.95-1.95-1.95-5.124 0-7.074 1.95-1.95 5.124-1.95 7.074 0 1.95 1.95 1.95 5.124 0 7.074-1.95 1.95-5.124 1.95-7.074 0z"/>
        </g>
    </g>
</svg>
